<svg width="101" height="100" viewBox="0 0 101 100" fill="none" xmlns="http://www.w3.org/2000/svg">
<path d="M2.45724 86.8276C0.925589 85.8608 0.0989468 84.1137 0.289507 82.3125C1.5633 70.2724 7.20517 23.9004 20.4438 2.63533C21.4716 0.984384 23.4399 0.243907 25.3469 0.625301L44.4908 4.45408C47.4227 5.04045 49.1879 8.05182 48.2673 10.8965L45.5607 19.2599C44.8931 21.3228 42.9719 22.7204 40.8036 22.7204H38.3306C35.5692 22.7204 33.3306 24.9589 33.3306 27.7204V58.8924C33.3306 60.882 34.9435 62.4949 36.9331 62.4949V62.4949C38.1511 62.4949 39.2773 61.872 39.992 60.8857C51.4634 45.054 73.4399 39.4188 86.8818 45.4407C105.214 53.94 103.547 79.5491 86.8818 90.8815C73.8756 99.769 35.2817 107.546 2.45724 86.8276Z" fill="black"/>
</svg>
