<svg width="60" height="56" viewBox="0 0 60 56" fill="none" xmlns="http://www.w3.org/2000/svg">
<path d="M35.4864 46.3152C45.6952 46.3152 50.801 46.3152 53.9711 43.1423C57.144 39.9722 57.144 34.8664 57.144 24.6576C57.144 14.4487 57.144 9.34297 53.9711 6.17284C50.801 3 45.6952 3 35.4864 3H24.6576C14.4487 3 9.34297 3 6.17284 6.17284C3 9.34297 3 14.4487 3 24.6576C3 34.8664 3 39.9722 6.17284 43.1423C7.94064 44.9129 10.3094 45.6952 13.8288 46.039" stroke="white" stroke-width="5" stroke-linecap="round" stroke-linejoin="round"/>
<path d="M35.4864 46.3152C32.1403 46.3152 28.4531 47.6688 25.088 49.4149C19.679 52.2223 16.9746 53.6273 15.6426 52.7313C14.3107 51.8379 14.5624 49.063 15.0687 43.5159L15.1824 42.2544" stroke="white" stroke-width="5" stroke-linecap="round"/>
</svg>
