<svg width="103" height="127" viewBox="0 0 103 127" fill="none" xmlns="http://www.w3.org/2000/svg">
<path d="M50.3666 25.5086C57.3208 25.5086 62.9583 19.8711 62.9583 12.9169C62.9583 5.96269 57.3208 0.325195 50.3666 0.325195C43.4124 0.325195 37.7749 5.96269 37.7749 12.9169C37.7749 19.8711 43.4124 25.5086 50.3666 25.5086Z" fill="#323232"/>
<path d="M74.8576 38.7928C72.4022 36.3374 68.184 31.8044 59.9994 31.8044H44.0079C26.6944 31.7415 12.5917 17.6388 12.5917 0.325195H0C0 20.2201 13.2842 37.0929 31.4792 42.5703V126.242H44.0709V88.467H56.6626V126.242H69.2543V51.0067L94.1229 75.8753L103 66.9982L74.8576 38.7928Z" fill="#323232"/>
</svg>
