<svg width="48" height="50" viewBox="0 0 48 50" fill="none" xmlns="http://www.w3.org/2000/svg">
<path d="M23.6842 0C21.0818 0 18.5379 0.771697 16.3741 2.2175C14.2103 3.66331 12.5238 5.71829 11.5279 8.12259C10.532 10.5269 10.2714 13.1725 10.7791 15.7249C11.2868 18.2773 12.54 20.6218 14.3802 22.4619C16.2203 24.3021 18.5649 25.5553 21.1172 26.063C23.6696 26.5707 26.3152 26.3101 28.7195 25.3142C31.1238 24.3183 33.1788 22.6318 34.6246 20.468C36.0704 18.3042 36.8421 15.7603 36.8421 13.1579C36.8421 9.6682 35.4558 6.32144 32.9882 3.85386C30.5207 1.38627 27.1739 0 23.6842 0V0ZM23.6842 21.0526C22.1228 21.0526 20.5964 20.5896 19.2981 19.7221C17.9998 18.8546 16.988 17.6217 16.3904 16.1791C15.7929 14.7365 15.6365 13.1491 15.9412 11.6177C16.2458 10.0863 16.9977 8.67957 18.1018 7.57547C19.2059 6.47137 20.6126 5.71947 22.144 5.41485C23.6755 5.11023 25.2628 5.26658 26.7054 5.86411C28.148 6.46164 29.381 7.47353 30.2484 8.77181C31.1159 10.0701 31.5789 11.5965 31.5789 13.1579C31.5789 15.2517 30.7472 17.2598 29.2666 18.7403C27.7861 20.2209 25.778 21.0526 23.6842 21.0526V21.0526ZM47.3684 50V47.3684C47.3684 42.4829 45.4276 37.7974 41.973 34.3428C38.5184 30.8882 33.8329 28.9474 28.9474 28.9474H18.4211C13.5355 28.9474 8.85002 30.8882 5.3954 34.3428C1.94078 37.7974 0 42.4829 0 47.3684V50H5.26316V47.3684C5.26316 43.8787 6.64943 40.532 9.11702 38.0644C11.5846 35.5968 14.9314 34.2105 18.4211 34.2105H28.9474C32.4371 34.2105 35.7838 35.5968 38.2514 38.0644C40.719 40.532 42.1053 43.8787 42.1053 47.3684V50H47.3684Z" fill="white"/>
</svg>
